<svg width="68" height="67" viewBox="0 0 68 67" fill="none" xmlns="http://www.w3.org/2000/svg">
<g clip-path="url(#clip0_129_40011)">
<path d="M17.3451 0.0791245C15.3848 0.390068 13.8031 1.09308 11.8563 2.52613C11.1668 3.03986 10.5179 3.45897 10.4367 3.45897C10.3556 3.45897 9.86892 3.67527 9.34167 3.93214C7.13801 5.04073 5.65088 7.42014 5.65088 9.86715C5.65088 11.2326 5.92127 12.1114 6.9893 14.2609L7.93565 16.1401L7.4084 16.2348C6.67835 16.3564 5.732 16.9919 5.28586 17.6678C4.94787 18.1816 4.90731 18.3573 4.90731 19.4253C4.90731 20.5204 4.93435 20.6421 5.3129 21.1829C5.84015 21.9399 6.75947 22.5078 7.62471 22.6024L8.30068 22.6835L8.55754 23.5893C9.21999 25.9417 10.8153 28.1048 12.9243 29.4837L13.4921 29.8623V31.3089V32.7554L8.53051 34.8104C5.78607 35.946 3.23091 37.0952 2.83885 37.352C1.98713 37.9334 1.44636 38.5823 0.946139 39.6503L0.581116 40.4344L0.540558 48.519L0.5 56.5901L0.837984 56.9281L1.17597 57.2661H5.1777H9.16592V61.795V66.3376L9.5039 66.662L9.82836 67H34.0416H58.2547L58.5792 66.662L58.9172 66.3376V61.795V57.2661H62.9054H66.9071L67.2316 56.9281L67.5696 56.6036V48.857C67.5696 40.7589 67.5425 40.4209 66.9612 39.2853C66.5556 38.5012 65.9878 37.8658 65.2443 37.352C64.8522 37.0952 62.297 35.946 59.5661 34.8104L54.591 32.7419V31.3089V29.8623L55.1723 29.4837C57.2678 28.1048 58.8631 25.9417 59.5256 23.5893L59.7824 22.6835L60.4584 22.6024C61.9996 22.4266 63.1352 21.1829 63.2164 19.5605C63.2569 18.7899 63.2164 18.5736 62.8784 17.9247C62.4322 17.073 61.54 16.3835 60.6747 16.2348C60.3773 16.1807 60.1339 16.1266 60.1339 16.0996C60.1339 16.0725 60.4178 15.3966 60.7558 14.5854C61.5264 12.8144 61.7292 12.0843 61.8374 10.7594C62.0131 8.42057 60.9992 5.7843 59.2552 4.06734C58.2007 3.02634 57.3625 2.53965 54.4558 1.25531C52.1305 0.241356 51.1165 0.011528 49.1157 0.0250473C46.4388 0.0656052 44.6137 0.714531 42.1397 2.52613C41.4502 3.03986 40.8012 3.45897 40.7201 3.45897C40.2334 3.45897 38.6111 4.47292 37.8675 5.25704C36.448 6.73065 35.8396 8.35298 35.9748 10.3538C36.0154 10.9893 36.0965 11.6382 36.1506 11.8139C36.2317 12.0978 36.2047 12.1114 35.8531 12.0167C35.2989 11.8815 32.595 11.9221 31.9055 12.0843L31.3242 12.2195L31.4323 11.7193C31.6081 10.9217 31.527 9.00191 31.2701 8.05555C30.7293 5.97357 29.1611 3.85103 27.4035 2.81004C26.2138 2.10703 22.5771 0.53878 21.5632 0.295433C20.414 0.011528 18.4267 -0.083107 17.3451 0.0791245ZM21.1982 2.44501C22.4555 2.76948 26.1598 4.51348 26.9439 5.14889C28.769 6.64954 29.6883 8.96135 29.3233 11.165C29.0529 12.8144 28.8907 13.0712 27.4711 14.0987C26.0786 15.0991 26.0516 15.1127 24.5645 15.8157C21.7254 17.1541 20.1977 20.4393 20.9954 23.5082C21.1035 23.9273 21.6173 25.1305 22.1445 26.1715L23.0909 28.0642H22.4014C21.2928 28.0642 20.6574 28.3211 19.9138 29.0782C18.5348 30.4436 18.5348 32.1741 19.9138 33.5396C20.6979 34.3372 21.2928 34.5535 22.6042 34.5535C23.2937 34.5535 23.4964 34.5941 23.4964 34.7428C23.4964 35.2024 24.3752 37.3115 24.9025 38.1497C25.5919 39.2042 26.9033 40.5696 27.9173 41.2726L28.6338 41.7593V43.1518V44.5443L27.9308 44.7471C27.5387 44.8553 24.1183 45.8016 20.3194 46.8561C16.534 47.8971 13.1541 48.857 12.8161 48.9652C10.653 49.7222 9.16592 51.8718 9.16592 54.2377V55.103H5.92127H2.6631L2.70366 47.9782C2.74422 40.8941 2.74422 40.84 3.04164 40.2722C3.20387 39.9748 3.5689 39.5422 3.82576 39.3123C4.12319 39.069 6.40796 38.0415 9.78781 36.649C13.3299 35.1754 15.3307 34.2696 15.4659 34.0939C15.6147 33.8775 15.6552 33.2827 15.6552 31.3765C15.6552 28.5644 15.6687 28.5915 14.4655 27.9155C14.0464 27.6722 13.2623 27.0367 12.735 26.5095C11.5588 25.3198 10.7477 23.8056 10.4367 22.1833C10.1528 20.7232 9.89596 20.4934 8.61162 20.4934C7.78694 20.4934 7.62471 20.4528 7.3408 20.1554C6.89466 19.7228 6.89466 19.1009 7.3408 18.6683C7.62471 18.3708 7.78694 18.3303 8.62514 18.3303C9.46334 18.3303 9.62557 18.2897 9.90948 17.9923C10.1934 17.7219 10.2475 17.5326 10.2475 16.8161C10.2475 16.0185 10.1799 15.8157 9.07128 13.5444L7.88158 11.1109V9.89418C7.88158 8.74504 7.90861 8.59632 8.34123 7.8122C8.89553 6.79825 9.5039 6.24395 10.5179 5.79782C11.8698 5.20296 12.0591 5.09481 13.3569 4.13493C14.6953 3.14802 16.1419 2.48557 17.4398 2.24223C18.3861 2.07999 20.1436 2.17462 21.1982 2.44501ZM51.4815 2.44501C52.7388 2.76948 56.4431 4.51348 57.2273 5.14889C58.5657 6.24395 59.3228 7.58237 59.6202 9.36693C59.8365 10.6513 59.5932 11.841 58.6468 14.0446C57.9303 15.694 57.8356 16.032 57.8356 16.7891C57.8356 17.5461 57.8897 17.7084 58.1736 17.9923C58.4575 18.2897 58.6198 18.3303 59.458 18.3303C60.2962 18.3303 60.4584 18.3708 60.7423 18.6683C61.1884 19.1009 61.1884 19.7228 60.7423 20.1554C60.4584 20.4528 60.2962 20.4934 59.4715 20.4934C58.1871 20.4934 57.9303 20.7232 57.6464 22.1833C57.3354 23.8056 56.5243 25.3198 55.3481 26.5095C54.8208 27.0503 54.0367 27.6857 53.6041 27.929C52.4144 28.5915 52.4279 28.5644 52.4279 31.39C52.4279 33.5396 52.4549 33.8775 52.6712 34.1209C52.8064 34.2831 55.1994 35.3647 58.3359 36.6625C61.6887 38.055 63.9464 39.069 64.2573 39.3123C64.5142 39.5422 64.8792 39.9748 65.0415 40.2722C65.3389 40.84 65.3389 40.8941 65.3795 47.9647L65.42 55.103H62.1618H58.9172V54.2377C58.9172 52.1287 57.714 50.1413 55.8483 49.168C55.6861 49.0868 52.0358 48.0458 47.7367 46.8561C43.4375 45.6529 39.8143 44.6525 39.6926 44.6119C39.4763 44.5443 39.4493 44.3551 39.4493 43.1518V41.7593L40.1929 41.2591C41.2068 40.5561 42.6804 38.9743 43.3429 37.8658C43.6403 37.352 44.0594 36.4057 44.2757 35.7567L44.6543 34.5535H45.5195C46.8038 34.5535 47.3987 34.3237 48.1693 33.5396C49.5483 32.1741 49.5483 30.4436 48.1693 29.0782C47.4257 28.3211 46.7903 28.0642 45.6817 28.0642C45.3032 28.0642 44.9922 28.0372 44.9922 28.0101C44.9922 27.9831 45.2761 27.2936 45.6141 26.4825C46.3847 24.7114 46.5875 23.9814 46.6957 22.6565C46.8714 20.3176 45.8845 17.7354 44.1135 15.9644C43.2077 15.0586 42.9103 14.8693 41.0851 13.977L39.0572 12.9901L38.6111 12.0438C38.2055 11.192 38.165 10.9757 38.165 9.88066C38.165 8.75856 38.192 8.59632 38.6246 7.8122C39.1789 6.79825 39.7873 6.24395 40.8012 5.79782C42.1532 5.20296 42.3424 5.09481 43.6403 4.13493C44.9787 3.14802 46.4253 2.48557 47.7232 2.24223C48.6695 2.07999 50.427 2.17462 51.4815 2.44501ZM36.3669 14.3421C37.5566 14.653 41.3285 16.4376 42.0856 17.0459C44.3974 18.9386 45.195 22.1563 43.9918 24.7655L43.6809 25.4279L43.059 24.1842C42.1126 22.3185 41.8152 22.2509 40.0577 23.5487C37.7999 25.2116 36.6643 25.6983 34.6634 25.847C32.3922 26.0228 30.5265 25.4009 28.2553 23.7245C26.2274 22.2239 25.9705 22.2644 24.9836 24.2653C24.6591 24.9412 24.3482 25.4955 24.3076 25.4955C24.2535 25.4955 23.9426 24.9277 23.6181 24.2382C23.0503 23.0485 23.0233 22.9404 23.0233 21.7777C23.0233 20.6556 23.0503 20.4934 23.4829 19.7092C24.0237 18.7088 24.6186 18.1545 25.6595 17.6678C26.2814 17.3704 26.5924 17.3163 27.5523 17.3163C28.5527 17.3163 28.8231 17.3704 29.5802 17.7354C30.4724 18.1545 31.1349 18.6953 31.7568 19.5335L32.0948 19.9932L32.933 19.4253C33.3926 19.1144 33.7712 18.8034 33.7712 18.7494C33.7712 18.5466 32.7572 17.3163 32.1624 16.8161C31.527 16.2753 30.1345 15.4912 29.7965 15.4912C29.2287 15.4912 29.7154 15.1127 30.8375 14.6665C32.4598 14.0041 34.6229 13.8824 36.3669 14.3421ZM28.093 26.2391C30.0398 27.5234 31.6216 27.9831 34.0416 27.9831C36.4615 27.9831 38.0433 27.5234 39.9901 26.2391C40.612 25.8335 41.1527 25.4955 41.2068 25.4955C41.2474 25.4955 41.6124 26.158 42.0045 26.9556L42.721 28.4157L42.6669 31.2413C42.6128 33.8911 42.5858 34.1479 42.2613 35.0673C41.7611 36.4733 41.1392 37.4467 40.1253 38.4741C39.0978 39.4881 38.1244 40.11 36.7184 40.6102C35.8667 40.9076 35.5152 40.9617 34.1091 40.9752C32.7978 40.9752 32.3111 40.9211 31.5405 40.6778C29.3368 39.9748 27.363 38.3119 26.3626 36.311C25.5649 34.7157 25.3892 33.7559 25.3892 30.8086V28.3346L26.0922 26.9151C26.4842 26.1309 26.8357 25.4955 26.8763 25.4955C26.9304 25.4955 27.4711 25.8335 28.093 26.2391ZM23.2261 31.3089V32.3904H22.4825C21.5767 32.3904 21.063 31.9984 21.063 31.3089C21.063 30.6194 21.5767 30.2273 22.4825 30.2273H23.2261V31.3089ZM46.6822 30.5653C46.8985 30.7681 47.0201 31.052 47.0201 31.3089C47.0201 31.9984 46.5064 32.3904 45.6006 32.3904H44.857V31.3089V30.2273H45.6006C46.2225 30.2273 46.4118 30.2814 46.6822 30.5653ZM34.0416 43.1113C35.2583 43.1113 36.11 43.0437 36.5832 42.9085L37.2862 42.7057V43.8008V44.8958L35.6639 46.5182L34.0416 48.1405L32.4192 46.5182L30.7969 44.8958V43.8008V42.7057L31.5134 42.9085C31.9731 43.0437 32.8248 43.1113 34.0416 43.1113ZM31.4729 48.6813C33.3656 50.5469 33.636 50.7768 34.0416 50.7768C34.4471 50.7768 34.7175 50.5469 36.6102 48.6813L38.7193 46.5858L46.7498 48.8164C55.2805 51.1823 55.5103 51.277 56.1728 52.2504C56.3485 52.5072 56.5378 52.9263 56.6189 53.1967C56.7 53.4806 56.7541 55.9412 56.7541 59.2534V64.8369H53.5094H50.2648V60.5107V56.1845H49.1832H48.1017V60.5107V64.8369H34.0416H19.9814V60.5107V56.1845H18.8999H17.8183V60.5107V64.8369H14.5737H11.329V59.2534C11.329 55.9412 11.3831 53.4806 11.4642 53.1967C11.5453 52.9263 11.7346 52.5072 11.9103 52.2504C12.5593 51.277 12.8161 51.1823 21.2658 48.83C25.6595 47.5997 29.2692 46.5993 29.3098 46.5993C29.3368 46.5858 30.3102 47.5321 31.4729 48.6813Z" fill="#0078C8"/>
</g>
<defs>
<clipPath id="clip0_129_40011">
<rect width="67" height="67" fill="white" transform="translate(0.5)"/>
</clipPath>
</defs>
</svg>
