<svg width="68" height="67" viewBox="0 0 68 67" fill="none" xmlns="http://www.w3.org/2000/svg">
<path d="M32.4585 0.0662003C30.617 0.345703 30.2718 0.427917 29.1209 0.871841C28.4303 1.15134 27.2465 1.8419 26.2436 2.56532C24.4186 3.88065 24.4186 3.88065 22.5771 4.75206C19.1244 6.37978 17.2665 10.3751 18.2365 14.1073C18.368 14.617 18.9928 16.0803 19.634 17.3463L20.785 19.6482H19.9464C18.5982 19.6482 17.8255 19.9605 16.9212 20.8813C15.2441 22.5419 15.2441 24.6464 16.9212 26.307C17.8748 27.2771 18.5982 27.5401 20.1931 27.5401C21.0316 27.5401 21.2782 27.5895 21.2782 27.7703C21.2782 28.3293 22.3469 30.8942 22.9881 31.9136C23.8267 33.196 25.4215 34.8566 26.6546 35.7116L27.526 36.3035V37.997V39.6905L26.6711 39.9371C26.1942 40.0686 22.0345 41.2196 17.4144 42.502C12.8108 43.768 8.70037 44.9354 8.28933 45.0669C6.38211 45.741 4.78727 47.4016 4.17893 49.3746C3.86654 50.3611 3.8501 50.9201 3.8501 58.3188V66.1944L4.26114 66.589L4.65574 67H34.1027H63.5496L63.9442 66.589L64.3552 66.1944V58.3024C64.3552 50.953 64.3388 50.3611 64.0428 49.391C63.5003 47.6647 62.2343 46.152 60.623 45.3135C60.4257 45.2149 55.9864 43.9489 50.758 42.502C45.5296 41.0387 41.1232 39.822 40.9753 39.7727C40.7122 39.6905 40.6793 39.4603 40.6793 37.997V36.3035L41.5836 35.6952C42.8167 34.8402 44.6088 32.9165 45.4145 31.5683C45.7762 30.9435 46.2859 29.7926 46.549 29.0034L47.0093 27.5401H48.0616C49.6235 27.5401 50.347 27.2606 51.2841 26.307C52.9612 24.6464 52.9612 22.5419 51.2841 20.8813C50.3799 19.9605 49.6071 19.6482 48.2589 19.6482C47.7985 19.6482 47.4204 19.6153 47.4204 19.5824C47.4204 19.5495 47.7656 18.711 48.1767 17.7245C49.1138 15.5706 49.3605 14.6828 49.492 13.0715C49.7057 10.2271 48.5055 7.08677 46.3517 4.93291C45.2665 3.84777 44.8884 3.60115 42.7016 2.53244C41.3699 1.89122 40.2189 1.24999 40.1367 1.1349C39.9723 0.838959 38.1144 0.263496 37.0621 0.18129C34.5301 -0.0160065 33.2806 -0.0488892 32.4585 0.0662003ZM36.9306 2.95992C38.3775 3.33808 42.9647 5.50837 43.8854 6.24825C46.6969 8.55007 47.667 12.4632 46.2037 15.6364L45.8255 16.442L45.0692 14.9294C43.9183 12.6605 43.5566 12.5783 41.4192 14.1567C38.6734 16.179 37.2923 16.7709 34.859 16.9517C32.0968 17.1655 29.8278 16.4092 27.0657 14.3704C24.5994 12.5454 24.287 12.5947 23.0868 15.0281C22.6922 15.8501 22.314 16.5243 22.2647 16.5243C22.1989 16.5243 21.8208 15.8337 21.4262 14.9952C20.7356 13.5483 20.7027 13.4168 20.7027 12.0028C20.7027 10.6382 20.7356 10.4409 21.2618 9.48724C21.9194 8.27057 22.6429 7.59646 23.9089 7.00456C24.6652 6.64285 25.0433 6.57708 26.2107 6.57708C27.4274 6.57708 27.7562 6.64285 28.6769 7.08677C29.7621 7.59646 30.5677 8.25412 31.324 9.2735L31.7351 9.83252L32.7544 9.14197C33.3135 8.76381 33.7738 8.38565 33.7738 8.31989C33.7738 8.07327 32.5407 6.57708 31.8173 5.96874C31.0445 5.31107 29.351 4.35746 28.94 4.35746C28.2494 4.35746 28.8413 3.89709 30.206 3.35452C32.179 2.54888 34.8096 2.40091 36.9306 2.95992ZM26.8684 17.4285C29.2359 18.9905 31.1596 19.5495 34.1027 19.5495C37.0457 19.5495 38.9694 18.9905 41.337 17.4285C42.0933 16.9353 42.7509 16.5243 42.8167 16.5243C42.866 16.5243 43.31 17.3299 43.7868 18.2999L44.6582 20.0756L44.5924 23.5119C44.5266 26.7345 44.4938 27.0469 44.0992 28.1649C43.4908 29.8748 42.7345 31.0586 41.5014 32.3082C40.2518 33.5413 39.068 34.2976 37.3581 34.906C36.3223 35.2677 35.8948 35.3335 34.1849 35.3499C32.59 35.3499 31.9981 35.2841 31.061 34.9882C28.381 34.1332 25.9805 32.1109 24.7638 29.6775C23.7938 27.7374 23.58 26.5701 23.58 22.9858V19.977L24.435 18.2506C24.9118 17.297 25.3393 16.5243 25.3886 16.5243C25.4544 16.5243 26.112 16.9353 26.8684 17.4285ZM20.9494 23.5941V24.9095H20.0451C18.9435 24.9095 18.3187 24.4327 18.3187 23.5941C18.3187 22.7556 18.9435 22.2788 20.0451 22.2788H20.9494V23.5941ZM49.4756 22.6899C49.7386 22.9365 49.8866 23.2818 49.8866 23.5941C49.8866 24.4327 49.2618 24.9095 48.1602 24.9095H47.2559V23.5941V22.2788H48.1602C48.9165 22.2788 49.1467 22.3446 49.4756 22.6899ZM34.1027 37.9477C35.5824 37.9477 36.6182 37.8655 37.1937 37.701L38.0486 37.4544V38.7862V40.118L36.0757 42.091L34.1027 44.064L32.1297 42.091L30.1567 40.118V38.7862V37.4544L31.0281 37.701C31.5871 37.8655 32.6229 37.9477 34.1027 37.9477ZM30.9788 44.7216C33.2806 46.9906 33.6094 47.2701 34.1027 47.2701C34.5959 47.2701 34.9247 46.9906 37.2266 44.7216L39.7915 42.1732L49.5578 44.886C59.9324 47.7633 60.2119 47.8784 61.0176 49.0622C61.2313 49.3746 61.4615 49.8843 61.5601 50.2131C61.6588 50.5584 61.7246 53.5508 61.7246 57.579V64.3693H57.7786H53.8326V59.108V53.8467H52.5173H51.2019V59.108V64.3693H34.1027H17.0034V59.108V53.8467H15.6881H14.3727V59.108V64.3693H10.4267H6.48076V57.579C6.48076 53.5508 6.54652 50.5584 6.64517 50.2131C6.74382 49.8843 6.974 49.3746 7.18774 49.0622C7.97694 47.8784 8.28933 47.7633 18.5653 44.9025C23.9089 43.4063 28.2988 42.1896 28.3481 42.1896C28.381 42.1732 29.5648 43.3241 30.9788 44.7216Z" fill="#D0D5DD"/>
</svg>
