<svg width="1440" height="255" viewBox="0 0 1440 255" fill="none" xmlns="http://www.w3.org/2000/svg">
<path fill-rule="evenodd" clip-rule="evenodd" d="M0 63.75L60 47.8125C120 31.875 240 0 360 0C480 0 600 31.875 720 74.375C840 116.875 960 170 1080 180.625C1200 191.25 1320 159.375 1380 143.438L1440 127.5V255H1380C1320 255 1200 255 1080 255C960 255 840 255 720 255C600 255 480 255 360 255C240 255 120 255 60 255H0V63.75Z" fill="#54A5DA"/>
<path fill-rule="evenodd" clip-rule="evenodd" d="M0 73.5L60 58.375C120 43.25 240 13 360 13C480 13 600 43.25 720 83.5833C840 123.917 960 174.333 1080 184.417C1200 194.5 1320 164.25 1380 149.125L1440 134V255H1380C1320 255 1200 255 1080 255C960 255 840 255 720 255C600 255 480 255 360 255C240 255 120 255 60 255H0V73.5Z" fill="#0078C8"/>
</svg>
